<?xml version="1.0" encoding="UTF-8"?>
<svg id="Layer_1" xmlns="http://www.w3.org/2000/svg" version="1.1" viewBox="0 0 625 180">
  <!-- Generator: Adobe Illustrator 29.7.1, SVG Export Plug-In . SVG Version: 2.1.1 Build 8)  -->
  <defs>
    <style>
      .st0 {
        fill: #fff;
      }
    </style>
  </defs>
  <g>
    <polygon class="st0" points="287.62 93.84 225.5 36.75 219.3 36.75 219.3 143.39 244.53 143.39 244.53 87.19 306.67 143.39 312.85 143.39 312.85 36.75 287.62 36.75 287.62 93.84"/>
    <polygon class="st0" points="328.94 143.39 409.13 143.39 409.13 120.09 354.17 120.09 354.17 102.34 402.93 102.34 402.93 78.9 354.17 78.9 354.17 59.64 409.13 59.64 409.13 36.61 328.94 36.61 328.94 143.39"/>
    <polygon class="st0" points="500.52 36.75 475.86 70.87 451.21 36.75 419.62 36.75 460.16 90.55 420.46 143.39 452.04 143.39 475.86 110.37 499.69 143.39 531.27 143.39 491.57 90.55 531.95 36.75 500.52 36.75"/>
    <polygon class="st0" points="527.63 71.24 527.63 110.47 512.9 90.86 527.63 71.24"/>
    <polygon class="st0" points="622.5 59.64 622.5 36.61 542.45 36.61 542.45 143.39 567.68 143.39 567.68 102.34 616.3 102.34 616.3 78.62 567.68 78.62 567.68 59.64 622.5 59.64"/>
  </g>
  <g>
    <path class="st0" d="M161.85,22.5v69.25S84.19,20.39,84.19,20.39V2.5s57.66,0,57.66,0c11.05,0,20,8.95,20,20Z"/>
    <path class="st0" d="M2.5,88.25l77.67,71.37v17.88s-57.67,0-57.67,0c-11.05,0-20-8.95-20-20v-69.25Z"/>
    <path class="st0" d="M161.85,111.56v45.94c0,11.05-8.95,20-20,20h-20.28S2.5,68.44,2.5,68.44V22.5c0-11.05,8.95-20,20-20h20.41s118.94,109.06,118.94,109.06Z"/>
  </g>
</svg>