<?xml version="1.0" encoding="UTF-8"?>
<svg id="Layer_1" xmlns="http://www.w3.org/2000/svg" version="1.1" viewBox="0 0 165 180">
  <!-- Generator: Adobe Illustrator 29.7.1, SVG Export Plug-In . SVG Version: 2.1.1 Build 8)  -->
  <defs>
    <style>
      .st0 {
        fill: #0059ff;
      }
    </style>
  </defs>
  <path class="st0" d="M162.18,22.5v69.25S84.52,20.39,84.52,20.39V2.5s57.66,0,57.66,0c11.05,0,20,8.95,20,20Z"/>
  <path class="st0" d="M2.82,88.25l77.67,71.37v17.88s-57.67,0-57.67,0c-11.05,0-20-8.95-20-20v-69.25Z"/>
  <path class="st0" d="M162.18,111.56v45.94c0,11.05-8.95,20-20,20h-20.28S2.82,68.44,2.82,68.44V22.5c0-11.05,8.95-20,20-20h20.41s118.94,109.06,118.94,109.06Z"/>
</svg>