<svg width="40" height="40" viewBox="0 0 40 40" fill="none" xmlns="http://www.w3.org/2000/svg">
<path d="M0 6C0 2.68629 2.68629 0 6 0H34C37.3137 0 40 2.68629 40 6V34C40 37.3137 37.3137 40 34 40H6C2.68629 40 0 37.3137 0 34V6Z" fill="#FEDCE7"/>
<path d="M23.477 20.89L24.992 29.416C25.009 29.5164 24.9949 29.6196 24.9516 29.7118C24.9084 29.8039 24.838 29.8807 24.7499 29.9318C24.6619 29.9829 24.5603 30.0059 24.4588 29.9977C24.3573 29.9895 24.2607 29.9506 24.182 29.886L20.602 27.199C20.4292 27.0699 20.2192 27.0001 20.0035 27.0001C19.7878 27.0001 19.5778 27.0699 19.405 27.199L15.819 29.885C15.7403 29.9494 15.6439 29.9883 15.5425 29.9965C15.4411 30.0047 15.3397 29.9818 15.2517 29.9309C15.1637 29.8799 15.0933 29.8033 15.0499 29.7113C15.0066 29.6193 14.9923 29.5163 15.009 29.416L16.523 20.89M26 16C26 19.3137 23.3137 22 20 22C16.6863 22 14 19.3137 14 16C14 12.6863 16.6863 10 20 10C23.3137 10 26 12.6863 26 16Z" stroke="#CB1D63" stroke-width="1.5" stroke-linecap="round" stroke-linejoin="round"/>
</svg>
