<svg width="40" height="40" viewBox="0 0 40 40" fill="none" xmlns="http://www.w3.org/2000/svg">
<path d="M0 6C0 2.68629 2.68629 0 6 0H34C37.3137 0 40 2.68629 40 6V34C40 37.3137 37.3137 40 34 40H6C2.68629 40 0 37.3137 0 34V6Z" fill="#FFDFB5"/>
<path d="M29 20C29 17.6131 28.0518 15.3239 26.364 13.636C24.6761 11.9482 22.3869 11 20 11C17.484 11.0095 15.069 11.9912 13.26 13.74L11 16M11 16V11M11 16H16M11 20C11 22.3869 11.9482 24.6761 13.636 26.364C15.3239 28.0518 17.6131 29 20 29C22.516 28.9905 24.931 28.0088 26.74 26.26L29 24M29 24H24M29 24V29" stroke="#CC4E00" stroke-width="1.5" stroke-linecap="round" stroke-linejoin="round"/>
</svg>
