<svg width="40" height="40" viewBox="0 0 40 40" fill="none" xmlns="http://www.w3.org/2000/svg">
<path d="M0 6C0 2.68629 2.68629 0 6 0H34C37.3137 0 40 2.68629 40 6V34C40 37.3137 37.3137 40 34 40H6C2.68629 40 0 37.3137 0 34V6Z" fill="#E6E7FF"/>
<path d="M13 29H27M19.562 11.266C19.6052 11.1876 19.6686 11.1222 19.7456 11.0767C19.8227 11.0312 19.9105 11.0071 20 11.0071C20.0895 11.0071 20.1773 11.0312 20.2544 11.0767C20.3314 11.1222 20.3948 11.1876 20.438 11.266L23.39 16.87C23.4604 16.9997 23.5586 17.1123 23.6777 17.1996C23.7968 17.2869 23.9337 17.3467 24.0786 17.3748C24.2235 17.403 24.3729 17.3986 24.5159 17.3622C24.659 17.3257 24.7922 17.258 24.906 17.164L29.183 13.5C29.2651 13.4332 29.3663 13.3942 29.472 13.3886C29.5776 13.383 29.6824 13.411 29.7711 13.4687C29.8598 13.5264 29.9279 13.6108 29.9657 13.7097C30.0034 13.8086 30.0087 13.9169 29.981 14.019L27.147 24.265C27.0891 24.4747 26.9645 24.6597 26.792 24.7922C26.6195 24.9247 26.4085 24.9972 26.191 24.999H13.81C13.5923 24.9975 13.3811 24.925 13.2084 24.7925C13.0357 24.66 12.9109 24.4748 12.853 24.265L10.02 14.02C9.99225 13.9179 9.99762 13.8096 10.0353 13.7107C10.0731 13.6118 10.1412 13.5274 10.2299 13.4697C10.3186 13.412 10.4234 13.384 10.529 13.3896C10.6347 13.3952 10.7359 13.4342 10.818 13.501L15.094 17.165C15.2078 17.259 15.341 17.3267 15.4841 17.3632C15.6271 17.3996 15.7765 17.404 15.9214 17.3758C16.0663 17.3477 16.2032 17.2879 16.3223 17.2006C16.4413 17.1133 16.5396 17.0007 16.61 16.871L19.562 11.266Z" stroke="#5753C6" stroke-width="1.5" stroke-linecap="round" stroke-linejoin="round"/>
</svg>
