<svg width="40" height="40" viewBox="0 0 40 40" fill="none" xmlns="http://www.w3.org/2000/svg">
<path d="M0 6C0 2.68629 2.68629 0 6 0H34C37.3137 0 40 2.68629 40 6V34C40 37.3137 37.3137 40 34 40H6C2.68629 40 0 37.3137 0 34V6Z" fill="#D5EFFF"/>
<path d="M11 17C11 16.4696 11.2107 15.9609 11.5858 15.5858C11.9609 15.2107 12.4696 15 13 15H27C27.5304 15 28.0391 15.2107 28.4142 15.5858C28.7893 15.9609 29 16.4696 29 17M11 19H14C14.8 19 15.6 19.3 16.1 19.9L17.2 20.8C18.8 22.4 21.3 22.4 22.9 20.8L24 19.9C24.5 19.4 25.3 19 26.1 19H29M13 11H27C28.1046 11 29 11.8954 29 13V27C29 28.1046 28.1046 29 27 29H13C11.8954 29 11 28.1046 11 27V13C11 11.8954 11.8954 11 13 11Z" stroke="#0D74CE" stroke-width="1.5" stroke-linecap="round" stroke-linejoin="round"/>
</svg>
