<svg width="32" height="32" viewBox="0 0 32 32" fill="none" xmlns="http://www.w3.org/2000/svg">
<path d="M0 6C0 2.68629 2.68629 0 6 0H26C29.3137 0 32 2.68629 32 6V26C32 29.3137 29.3137 32 26 32H6C2.68629 32 0 29.3137 0 26V6Z" fill="#334155"/>
<path d="M20 9.3335H18C17.1159 9.3335 16.2681 9.68469 15.643 10.3098C15.0178 10.9349 14.6667 11.7828 14.6667 12.6668V14.6668H12.6667V17.3335H14.6667V22.6668H17.3333V17.3335H19.3333L20 14.6668H17.3333V12.6668C17.3333 12.49 17.4036 12.3204 17.5286 12.1954C17.6536 12.0704 17.8232 12.0002 18 12.0002H20V9.3335Z" stroke="#EFF6FF" stroke-linecap="round" stroke-linejoin="round"/>
</svg>
