<svg width="32" height="32" viewBox="0 0 32 32" fill="none" xmlns="http://www.w3.org/2000/svg">
<path d="M0 6C0 2.68629 2.68629 0 6 0H26C29.3137 0 32 2.68629 32 6V26C32 29.3137 29.3137 32 26 32H6C2.68629 32 0 29.3137 0 26V6Z" fill="#334155"/>
<g clip-path="url(#clip0_3040_6238)">
<path d="M19.6667 12.3335H19.6733M12.6667 9.3335H19.3333C21.1743 9.3335 22.6667 10.8259 22.6667 12.6668V19.3335C22.6667 21.1744 21.1743 22.6668 19.3333 22.6668H12.6667C10.8257 22.6668 9.33334 21.1744 9.33334 19.3335V12.6668C9.33334 10.8259 10.8257 9.3335 12.6667 9.3335ZM18.6667 15.5802C18.749 16.135 18.6542 16.7016 18.3959 17.1995C18.1375 17.6974 17.7288 18.1011 17.2278 18.3533C16.7267 18.6055 16.159 18.6932 15.6052 18.6041C15.0514 18.515 14.5399 18.2536 14.1432 17.8569C13.7466 17.4603 13.4852 16.9487 13.3961 16.395C13.3069 15.8412 13.3947 15.2734 13.6469 14.7724C13.8991 14.2714 14.3028 13.8627 14.8007 13.6043C15.2985 13.346 15.8652 13.2512 16.42 13.3335C16.986 13.4174 17.5099 13.6811 17.9145 14.0857C18.319 14.4903 18.5828 15.0142 18.6667 15.5802Z" stroke="#EFF6FF" stroke-linecap="round" stroke-linejoin="round"/>
</g>
<defs>
<clipPath id="clip0_3040_6238">
<rect width="16" height="16" fill="white" transform="translate(8 8)"/>
</clipPath>
</defs>
</svg>
