<svg width="32" height="32" viewBox="0 0 32 32" fill="none" xmlns="http://www.w3.org/2000/svg">
<path d="M0 6C0 2.68629 2.68629 0 6 0H26C29.3137 0 32 2.68629 32 6V26C32 29.3137 29.3137 32 26 32H6C2.68629 32 0 29.3137 0 26V6Z" fill="#334155"/>
<g clip-path="url(#clip0_3040_6285)">
<path d="M17.2213 19.0455C17.359 19.1087 17.5141 19.1232 17.6611 19.0865C17.8081 19.0497 17.9382 18.964 18.03 18.8435L18.2667 18.5335C18.3909 18.3679 18.5519 18.2335 18.7371 18.1409C18.9222 18.0484 19.1264 18.0002 19.3333 18.0002H21.3333C21.687 18.0002 22.0261 18.1406 22.2762 18.3907C22.5262 18.6407 22.6667 18.9799 22.6667 19.3335V21.3335C22.6667 21.6871 22.5262 22.0263 22.2762 22.2763C22.0261 22.5264 21.687 22.6668 21.3333 22.6668C18.1507 22.6668 15.0985 21.4025 12.8481 19.1521C10.5976 16.9017 9.33334 13.8494 9.33334 10.6668C9.33334 10.3132 9.47382 9.97407 9.72387 9.72402C9.97392 9.47397 10.3131 9.3335 10.6667 9.3335H12.6667C13.0203 9.3335 13.3594 9.47397 13.6095 9.72402C13.8595 9.97407 14 10.3132 14 10.6668V12.6668C14 12.8738 13.9518 13.078 13.8592 13.2631C13.7667 13.4483 13.6323 13.6093 13.4667 13.7335L13.1547 13.9675C13.0323 14.0609 12.946 14.1939 12.9105 14.3437C12.8751 14.4936 12.8925 14.6511 12.96 14.7895C13.8711 16.6401 15.3696 18.1367 17.2213 19.0455Z" stroke="#EFF6FF" stroke-linecap="round" stroke-linejoin="round"/>
</g>
<defs>
<clipPath id="clip0_3040_6285">
<rect width="16" height="16" fill="white" transform="translate(8 8)"/>
</clipPath>
</defs>
</svg>
