<svg width="32" height="32" viewBox="0 0 32 32" fill="none" xmlns="http://www.w3.org/2000/svg">
<path d="M0 6C0 2.68629 2.68629 0 6 0H26C29.3137 0 32 2.68629 32 6V26C32 29.3137 29.3137 32 26 32H6C2.68629 32 0 29.3137 0 26V6Z" fill="#334155"/>
<path d="M22.6667 10.6668C22.6667 10.6668 22.2 12.0668 21.3333 12.9335C22.4 19.6002 15.0667 24.4668 9.33334 20.6668C10.8 20.7335 12.2667 20.2668 13.3333 19.3335C10 18.3335 8.33334 14.4002 10 11.3335C11.4667 13.0668 13.7333 14.0668 16 14.0002C15.4 11.2002 18.6667 9.60018 20.6667 11.4668C21.4 11.4668 22.6667 10.6668 22.6667 10.6668Z" stroke="#EFF6FF" stroke-linecap="round" stroke-linejoin="round"/>
</svg>
