<svg width="32" height="32" viewBox="0 0 32 32" fill="none" xmlns="http://www.w3.org/2000/svg">
<path d="M0 6C0 2.68629 2.68629 0 6 0H26C29.3137 0 32 2.68629 32 6V26C32 29.3137 29.3137 32 26 32H6C2.68629 32 0 29.3137 0 26V6Z" fill="#334155"/>
<path d="M9.66667 19.3333C9.20095 17.1355 9.20095 14.8645 9.66667 12.6667C9.72786 12.4435 9.8461 12.24 10.0097 12.0764C10.1734 11.9128 10.3768 11.7945 10.6 11.7333C14.1756 11.141 17.8244 11.141 21.4 11.7333C21.6232 11.7945 21.8266 11.9128 21.9903 12.0764C22.1539 12.24 22.2721 12.4435 22.3333 12.6667C22.7991 14.8645 22.7991 17.1355 22.3333 19.3333C22.2721 19.5565 22.1539 19.7599 21.9903 19.9236C21.8266 20.0872 21.6232 20.2055 21.4 20.2667C17.8244 20.8591 14.1756 20.8591 10.6 20.2667C10.3768 20.2055 10.1734 20.0872 10.0097 19.9236C9.8461 19.7599 9.72786 19.5565 9.66667 19.3333Z" stroke="#EFF6FF" stroke-linecap="round" stroke-linejoin="round"/>
<path d="M14.6667 18L18 16L14.6667 14V18Z" stroke="#EFF6FF" stroke-linecap="round" stroke-linejoin="round"/>
</svg>
